<svg width="2223" height="1297" xmlns="http://www.w3.org/2000/svg" xmlns:xlink="http://www.w3.org/1999/xlink" xml:space="preserve" overflow="hidden"><defs><clipPath id="clip0"><rect x="0" y="0" width="2223" height="1297"/></clipPath></defs><g clip-path="url(#clip0)"><rect x="0" y="0" width="2223" height="1297" fill="#FFFFFF"/><path d="M143 129.334C143 119.208 151.208 111 161.334 111L555.667 111C565.792 111 574 119.208 574 129.334L574 202.666C574 212.792 565.792 221 555.667 221L161.334 221C151.208 221 143 212.792 143 202.666Z" fill="#FFC000" fill-rule="evenodd" fill-opacity="0.501961"/><text fill="#FFFFFF" font-family="Calibri Light,Calibri Light_MSFontService,sans-serif" font-weight="300" font-size="50" transform="matrix(1 0 0 1 203.962 183)">INITIALIZATION</text><path d="M142 354.167C142 338.058 155.059 325 171.167 325L544.833 325C560.942 325 574 338.058 574 354.167L574 470.833C574 486.942 560.942 500 544.833 500L171.167 500C155.059 500 142 486.942 142 470.833Z" fill="#70AD47" fill-rule="evenodd" fill-opacity="0.501961"/><text fill="#FFFFFF" font-family="Calibri Light,Calibri Light_MSFontService,sans-serif" font-weight="300" font-size="50" transform="matrix(1 0 0 1 284.556 397)">ARUCO <tspan font-size="50" x="-44.8708" y="65">SEARCHING</tspan></text><path d="M143 801.334C143 791.208 151.208 783 161.334 783L555.667 783C565.792 783 574 791.208 574 801.334L574 874.667C574 884.792 565.792 893 555.667 893L161.334 893C151.208 893 143 884.792 143 874.667Z" fill="#70AD47" fill-rule="evenodd" fill-opacity="0.501961"/><text fill="#FFFFFF" font-family="Calibri Light,Calibri Light_MSFontService,sans-serif" font-weight="300" font-size="50" transform="matrix(1 0 0 1 213.449 856)">JSONs SAVING</text><path d="M142 1077.33C142 1067.21 150.208 1059 160.334 1059L555.667 1059C565.792 1059 574 1067.21 574 1077.33L574 1150.67C574 1160.79 565.792 1169 555.667 1169L160.334 1169C150.208 1169 142 1160.79 142 1150.67Z" fill="#70AD47" fill-rule="evenodd" fill-opacity="0.501961"/><text fill="#FFFFFF" font-family="Calibri Light,Calibri Light_MSFontService,sans-serif" font-weight="300" font-size="50" transform="matrix(1 0 0 1 197.702 1131)">JSONs SENDING</text><path d="M821 911.334C821 901.208 829.208 893 839.333 893L1234.67 893C1244.79 893 1253 901.208 1253 911.334L1253 984.667C1253 994.792 1244.79 1003 1234.67 1003L839.333 1003C829.208 1003 821 994.792 821 984.667Z" fill="#70AD47" fill-rule="evenodd" fill-opacity="0.501961"/><text fill="#FFFFFF" font-family="Calibri Light,Calibri Light_MSFontService,sans-serif" font-weight="300" font-size="50" transform="matrix(1 0 0 1 867.457 965)">ADDING IMAGES</text><path d="M821 590.334C821 567.506 839.506 549 862.334 549L1211.67 549C1234.49 549 1253 567.506 1253 590.334L1253 755.666C1253 778.494 1234.49 797 1211.67 797L862.334 797C839.506 797 821 778.494 821 755.666Z" fill="#70AD47" fill-rule="evenodd" fill-opacity="0.501961"/><text fill="#FFFFFF" font-family="Calibri Light,Calibri Light_MSFontService,sans-serif" font-weight="300" font-size="50" transform="matrix(1 0 0 1 936.985 625)">SAVING &amp; <tspan font-size="50" x="-20.0979" y="65">DISPLAYING </tspan><tspan font-size="50" x="15.4" y="130">STREAM</tspan></text><path d="M821 356.167C821 340.611 833.611 328 849.167 328L1224.83 328C1240.39 328 1253 340.611 1253 356.167L1253 468.833C1253 484.389 1240.39 497 1224.83 497L849.167 497C833.611 497 821 484.389 821 468.833Z" fill="#70AD47" fill-rule="evenodd" fill-opacity="0.501961"/><text fill="#FFFFFF" font-family="Calibri Light,Calibri Light_MSFontService,sans-serif" font-weight="300" font-size="50" transform="matrix(1 0 0 1 872.957 397)">CHECKING STOP <tspan font-size="50" x="34.4208" y="65">CONDITIONS</tspan></text><path d="M821 130.001C821 120.059 829.059 112 839 112L1235 112C1244.94 112 1253 120.059 1253 130.001L1253 201.999C1253 211.941 1244.94 220 1235 220L839 220C829.059 220 821 211.941 821 201.999Z" fill="#ED7D31" fill-rule="evenodd" fill-opacity="0.501961"/><text fill="#FFFFFF" font-family="Calibri Light,Calibri Light_MSFontService,sans-serif" font-weight="300" font-size="50" transform="matrix(1 0 0 1 880.37 183)">END PROGRAM</text><path d="M361.013 221.5 361.013 275.807 358.5 275.807 360.792 273.515 360.792 302.614 356.208 302.614 356.208 271.224 358.721 271.224 356.43 273.515 356.43 221.5ZM344.971 221.5 358.721 207.75 372.471 221.5 358.721 235.25ZM372.25 298.03 358.5 325.53 344.75 298.03Z" fill="#1F4E79"/><path d="M0-2.29167 143.97-2.29167 143.97 0.221227 141.678-2.07044 260.44-2.07044 260.44 2.51289 139.387 2.51289 139.387 0 141.678 2.29167 0 2.29167ZM0 13.75-13.75 0 0-13.75 13.75 0ZM255.856-13.5288 283.356 0.221227 255.856 13.9712Z" fill="#1F4E79" transform="matrix(1.83697e-16 1 1 -1.83697e-16 358.5 500.5)"/><path d="M574.5 836.208 700.313 836.208 700.313 948.5 698.021 946.208 798.625 946.208 798.625 950.792 695.729 950.792 695.729 838.5 698.021 840.792 574.5 840.792ZM574.5 852.25 560.75 838.5 574.5 824.75 588.25 838.5ZM794.042 934.75 821.542 948.5 794.042 962.25Z" fill="#1F4E79"/><path d="M0-2.29167 465.43-2.29167 465.43 88.0004 460.847 88.0004 460.847 0 463.138 2.29167 0 2.29167ZM0 13.75-13.75 0 0-13.75 13.75 0ZM476.888 83.417 463.138 110.917 449.388 83.417Z" fill="#1F4E79" transform="matrix(1 0 0 -1 574.5 1114.42)"/><path d="M361.013 893.5 361.013 978.75 358.5 978.75 360.792 976.459 360.792 1036.5 356.208 1036.5 356.208 974.167 358.721 974.167 356.43 976.459 356.43 893.5ZM344.971 893.5 358.721 879.75 372.471 893.5 358.721 907.25ZM372.25 1031.92 358.5 1059.42 344.75 1031.92Z" fill="#1F4E79"/><path d="M0-2.29167 50.1796-2.29167 50.1796 0.000721785 47.8879-2.29094 72.8588-2.29094 72.8588 2.29239 45.5962 2.29239 45.5962 0 47.8879 2.29167 0 2.29167ZM0 13.75-13.75 0 0-13.75 13.75 0ZM68.2754-13.7493 95.7754 0.000721785 68.2754 13.7507Z" fill="#1F4E79" transform="matrix(-1.83697e-16 -1 -1 1.83697e-16 1037.5 893.275)"/><path d="M1035.21 549.291 1035.21 520.416 1039.79 520.416 1039.79 549.291ZM1051.25 549.291 1037.5 563.041 1023.75 549.291 1037.5 535.541ZM1023.75 525 1037.5 497.5 1051.25 525Z" fill="#1F4E79"/><path d="M0-2.29167 55.974-2.29167 55.974 0.000360892 53.6824-2.29131 84.4477-2.29131 84.4477 2.29203 51.3907 2.29203 51.3907 0 53.6824 2.29167 0 2.29167ZM0 13.75-13.75 0 0-13.75 13.75 0ZM79.8644-13.7496 107.364 0.000360892 79.8644 13.7504Z" fill="#1F4E79" transform="matrix(-1.83697e-16 -1 -1 1.83697e-16 1037.5 327.864)"/><path d="M821.763 414.797 695.84 414.797 695.84 412.5 698.131 414.792 597.417 414.792 597.417 410.208 700.423 410.208 700.423 412.505 698.131 410.214 821.763 410.214ZM821.763 398.755 835.513 412.505 821.763 426.255 808.013 412.505ZM602 426.25 574.5 412.5 602 398.75Z" fill="#1F4E79"/><path d="M0-2.29167 175.603-2.29167 175.603 440.221 171.02 440.221 171.02 0 173.311 2.29167 0 2.29167ZM0 13.75-13.75 0 0-13.75 13.75 0ZM187.061 435.638 173.311 463.138 159.561 435.638Z" fill="#1F4E79" transform="matrix(1.83697e-16 1 1 -1.83697e-16 358.5 500.5)"/><path d="M1453.5 986.208 1498.69 986.208 1498.69 988.5 1496.4 986.209 1516.38 986.209 1516.38 990.792 1494.11 990.792 1494.11 988.5 1496.4 990.792 1453.5 990.792ZM1453.5 1002.25 1439.75 988.5 1453.5 974.75 1467.25 988.5ZM1511.8 974.75 1539.3 988.5 1511.8 1002.25Z" fill="#1F4E79"/><text font-family="Calibri Light,Calibri Light_MSFontService,sans-serif" font-weight="300" font-size="50" transform="matrix(1 0 0 1 1581.77 998)">Possible transitions</text><path d="M1424 720.5C1424 715.253 1428.25 711 1433.5 711L1537.5 711C1542.75 711 1547 715.253 1547 720.5L1547 758.5C1547 763.747 1542.75 768 1537.5 768L1433.5 768C1428.25 768 1424 763.747 1424 758.5Z" fill="#FFC000" fill-rule="evenodd" fill-opacity="0.501961"/><text font-family="Calibri Light,Calibri Light_MSFontService,sans-serif" font-weight="300" font-size="50" transform="matrix(1 0 0 1 1581.93 756)">Initial state</text><path d="M1424 798.333C1424 793.179 1428.18 789 1433.33 789L1537.67 789C1542.82 789 1547 793.179 1547 798.333L1547 835.666C1547 840.821 1542.82 845 1537.67 845L1433.33 845C1428.18 845 1424 840.821 1424 835.666Z" fill="#ED7D31" fill-rule="evenodd" fill-opacity="0.501961"/><text font-family="Calibri Light,Calibri Light_MSFontService,sans-serif" font-weight="300" font-size="50" transform="matrix(1 0 0 1 1582.03 832)">Last state<tspan font-size="50" x="0" y="78">Main loop states</tspan></text><path d="M1424 875.5C1424 870.253 1428.25 866 1433.5 866L1537.5 866C1542.75 866 1547 870.253 1547 875.5L1547 913.5C1547 918.747 1542.75 923 1537.5 923L1433.5 923C1428.25 923 1424 918.747 1424 913.5Z" fill="#70AD47" fill-rule="evenodd" fill-opacity="0.501961"/><text font-family="Calibri Light,Calibri Light_MSFontService,sans-serif" font-weight="300" font-size="73" transform="matrix(1 0 0 1 1477.64 292)">ArUco Detection <tspan font-size="73" x="31.5792" y="96">State Machine </tspan><tspan font-size="73" x="130.006" y="191">scheme</tspan></text></g></svg>